<svg width="40" height="40" viewBox="0 0 40 40" fill="none" xmlns="http://www.w3.org/2000/svg">
<path d="M33.5854 4.91235H6.08545C5.58817 4.91235 5.11125 5.1099 4.75962 5.46153C4.40799 5.81316 4.21045 6.29007 4.21045 6.78735V34.2874C4.21045 34.7846 4.40799 35.2615 4.75962 35.6132C5.11125 35.9648 5.58817 36.1624 6.08545 36.1624H33.5854C34.0827 36.1624 34.5596 35.9648 34.9113 35.6132C35.2629 35.2615 35.4604 34.7846 35.4604 34.2874V6.78735C35.4604 6.29007 35.2629 5.81316 34.9113 5.46153C34.5596 5.1099 34.0827 4.91235 33.5854 4.91235ZM34.2104 34.2874C34.2104 34.4531 34.1446 34.6121 34.0274 34.7293C33.9102 34.8465 33.7512 34.9124 33.5854 34.9124H6.08545C5.91969 34.9124 5.76072 34.8465 5.64351 34.7293C5.5263 34.6121 5.46045 34.4531 5.46045 34.2874V6.78735C5.46045 6.62159 5.5263 6.46262 5.64351 6.34541C5.76072 6.2282 5.91969 6.16235 6.08545 6.16235H33.5854C33.7512 6.16235 33.9102 6.2282 34.0274 6.34541C34.1446 6.46262 34.2104 6.62159 34.2104 6.78735V34.2874ZM14.2104 18.0374V28.0374C14.2104 28.2031 14.1446 28.3621 14.0274 28.4793C13.9102 28.5965 13.7512 28.6624 13.5854 28.6624C13.4197 28.6624 13.2607 28.5965 13.1435 28.4793C13.0263 28.3621 12.9604 28.2031 12.9604 28.0374V18.0374C12.9604 17.8716 13.0263 17.7126 13.1435 17.5954C13.2607 17.4782 13.4197 17.4124 13.5854 17.4124C13.7512 17.4124 13.9102 17.4782 14.0274 17.5954C14.1446 17.7126 14.2104 17.8716 14.2104 18.0374ZM27.9604 22.4124V28.0374C27.9604 28.2031 27.8946 28.3621 27.7774 28.4793C27.6602 28.5965 27.5012 28.6624 27.3354 28.6624C27.1697 28.6624 27.0107 28.5965 26.8935 28.4793C26.7763 28.3621 26.7104 28.2031 26.7104 28.0374V22.4124C26.7104 21.4178 26.3154 20.464 25.6121 19.7607C24.9088 19.0574 23.955 18.6624 22.9604 18.6624C21.9659 18.6624 21.0121 19.0574 20.3088 19.7607C19.6055 20.464 19.2104 21.4178 19.2104 22.4124V28.0374C19.2104 28.2031 19.1446 28.3621 19.0274 28.4793C18.9102 28.5965 18.7512 28.6624 18.5854 28.6624C18.4197 28.6624 18.2607 28.5965 18.1435 28.4793C18.0263 28.3621 17.9604 28.2031 17.9604 28.0374V18.0374C17.9604 17.8716 18.0263 17.7126 18.1435 17.5954C18.2607 17.4782 18.4197 17.4124 18.5854 17.4124C18.7512 17.4124 18.9102 17.4782 19.0274 17.5954C19.1446 17.7126 19.2104 17.8716 19.2104 18.0374V19.1108C19.8819 18.3494 20.7692 17.8105 21.7543 17.5656C22.7395 17.3208 23.7758 17.3815 24.7256 17.7399C25.6754 18.0983 26.4935 18.7372 27.0714 19.5719C27.6492 20.4065 27.9593 21.3972 27.9604 22.4124ZM14.8354 13.6624C14.8354 13.9096 14.7621 14.1513 14.6248 14.3568C14.4874 14.5624 14.2922 14.7226 14.0638 14.8172C13.8354 14.9118 13.5841 14.9366 13.3416 14.8883C13.0991 14.8401 12.8764 14.7211 12.7016 14.5462C12.5268 14.3714 12.4077 14.1487 12.3595 13.9062C12.3112 13.6637 12.336 13.4124 12.4306 13.184C12.5252 12.9556 12.6854 12.7604 12.891 12.623C13.0965 12.4857 13.3382 12.4124 13.5854 12.4124C13.917 12.4124 14.2349 12.544 14.4693 12.7785C14.7038 13.0129 14.8354 13.3308 14.8354 13.6624Z" fill="white"></path>
</svg>
