<svg width="39" height="39" viewBox="0 0 39 39" fill="none" xmlns="http://www.w3.org/2000/svg">
<path d="M4.875 17.875C4.875 11.7471 4.875 8.68237 6.7795 6.7795C8.68237 4.875 11.7471 4.875 17.875 4.875H21.125C27.2529 4.875 30.3176 4.875 32.2205 6.7795C34.125 8.68237 34.125 11.7471 34.125 17.875V21.125C34.125 27.2529 34.125 30.3176 32.2205 32.2205C30.3176 34.125 27.2529 34.125 21.125 34.125H17.875C11.7471 34.125 8.68237 34.125 6.7795 32.2205C4.875 30.3176 4.875 27.2529 4.875 21.125V17.875Z" stroke="white"></path>
<path d="M26.8125 14.625C28.1587 14.625 29.25 13.5337 29.25 12.1875C29.25 10.8413 28.1587 9.75 26.8125 9.75C25.4663 9.75 24.375 10.8413 24.375 12.1875C24.375 13.5337 25.4663 14.625 26.8125 14.625Z" fill="white"></path>
<path d="M19.5 24.375C22.1924 24.375 24.375 22.1924 24.375 19.5C24.375 16.8076 22.1924 14.625 19.5 14.625C16.8076 14.625 14.625 16.8076 14.625 19.5C14.625 22.1924 16.8076 24.375 19.5 24.375Z" stroke="white"></path>
</svg>
