<svg width="87" height="18" viewBox="0 0 87 18" fill="none" xmlns="http://www.w3.org/2000/svg">
<path d="M1.75391 17H0.523438V0.59375H12.9336V1.20312H1.75391V8.10547H12.3359V8.71484H1.75391V17ZM23.2812 17.2344C17.5391 17.2344 14.3984 14.2461 14.3984 8.79688V8.75C14.3984 3.32422 17.5391 0.359375 23.2812 0.359375C29.0234 0.359375 32.1641 3.32422 32.1641 8.75V8.79688C32.1641 14.2461 29.0234 17.2344 23.2812 17.2344ZM23.2812 16.6953C28.3789 16.6953 30.875 14.1055 30.875 8.79688V8.75C30.875 3.46484 28.3789 0.898438 23.2812 0.898438C18.1836 0.898438 15.6875 3.46484 15.6875 8.75V8.79688C15.6875 14.1055 18.1836 16.6953 23.2812 16.6953ZM43.0742 17.2344C37.4141 17.2344 34.2734 14.2344 34.2734 8.83203V8.78516C34.2734 3.37109 37.3906 0.359375 43.0156 0.359375C47.9492 0.359375 50.8906 2.46875 51.2422 6.45312L50.0117 6.95703C49.8594 2.72656 47.5859 0.898438 43.0156 0.898438C38.0117 0.898438 35.5625 3.5 35.5625 8.78516V8.83203C35.5625 14.0234 38.082 16.5781 43.2148 16.5781C47.9609 16.5781 50.4805 14.7617 50.8555 11.0586L51.5 11.2578C51.0898 15.1719 48.0898 17.2344 43.0742 17.2344ZM61.332 17.2344C56.1875 17.2344 54.0195 15.207 54.0195 10.3906V0.59375H55.25V10.2734C55.25 14.5625 57.1367 16.5078 61.5898 16.5078C66.043 16.5078 67.9297 14.5625 67.9297 10.2734V0.59375H68.6328V10.3906C68.6328 15.207 66.4648 17.2344 61.332 17.2344ZM79.25 17.2344C74.3516 17.2344 71.4922 15.2188 70.9297 11.4805L72.1836 10.9062C72.5 14.8203 74.7383 16.6953 79.25 16.6953C83.1875 16.6953 85.332 15.418 85.332 13.0977C85.332 11.1406 84.1484 10.3789 80.5039 9.53516L76.9062 8.70312C73.2852 7.87109 71.9492 6.82812 71.9492 4.75391C71.9492 1.92969 74.3281 0.359375 78.6406 0.359375C83.2227 0.359375 85.7539 2.48047 86.0352 6.30078L84.8164 6.85156C84.6875 2.76172 82.7305 0.898438 78.6406 0.898438C74.9023 0.898438 72.9688 2.16406 72.9688 4.48438C72.9688 5.9375 73.6484 6.76953 77.2695 7.60156L80.8672 8.43359C84.5117 9.27734 86.3867 10.25 86.3867 12.7461C86.3867 15.6289 83.7617 17.2344 79.25 17.2344Z" fill="white"></path>
</svg>
